<?xml version="1.0" standalone="no"?>
<!DOCTYPE svg PUBLIC "-//W3C//DTD SVG 20010904//EN"
 "http://www.w3.org/TR/2001/REC-SVG-20010904/DTD/svg10.dtd">
<svg version="1.0" xmlns="http://www.w3.org/2000/svg"
 width="250.000000pt" height="220.000000pt" viewBox="0 0 250.000000 220.000000"
 preserveAspectRatio="xMidYMid meet">

<g transform="translate(0.000000,220.000000) scale(0.100000,-0.100000)"
fill="#000000" stroke="none">
<path d="M1718 1564 c-60 -21 -82 -34 -478 -272 -383 -231 -439 -262 -463
-262 -8 0 -42 18 -77 41 l-63 40 -64 -32 c-35 -18 -63 -38 -61 -44 6 -24 216
-235 233 -235 10 0 110 47 223 105 112 58 208 102 213 99 6 -3 8 -13 5 -22 -5
-16 -15 -107 -36 -319 -5 -51 -12 -104 -16 -119 -6 -24 -5 -26 16 -19 49 16
131 77 145 108 8 18 51 126 95 242 108 280 110 283 140 308 15 12 131 76 258
142 128 66 234 126 237 133 8 21 -70 97 -113 110 -51 15 -147 13 -194 -4z"/>
<path d="M926 1473 c-24 -6 -96 -53 -96 -62 0 -4 57 -35 126 -69 l126 -63 71
42 c40 23 84 49 99 58 16 9 28 21 28 27 0 6 -42 19 -92 28 -51 10 -106 21
-123 26 -42 13 -116 19 -139 13z"/>
</g>
</svg>
