<?xml version="1.0" standalone="no"?>
<!DOCTYPE svg PUBLIC "-//W3C//DTD SVG 20010904//EN"
 "http://www.w3.org/TR/2001/REC-SVG-20010904/DTD/svg10.dtd">
<svg version="1.0" xmlns="http://www.w3.org/2000/svg"
 width="250.000000pt" height="220.000000pt" viewBox="0 0 250.000000 220.000000"
 preserveAspectRatio="xMidYMid meet">

<g transform="translate(0.000000,220.000000) scale(0.100000,-0.100000)"
fill="#000000" stroke="none">
<path d="M634 1669 c-18 -20 -19 -44 -22 -413 l-3 -391 -30 -25 c-39 -33 -49
-86 -21 -120 17 -21 30 -25 95 -28 91 -5 110 4 137 66 40 90 100 132 187 132
80 0 142 -49 182 -143 l20 -45 63 -7 c35 -3 99 -4 143 -1 44 2 94 5 111 5 28
1 34 7 64 67 22 45 45 75 73 95 39 28 47 30 109 27 87 -5 129 -36 176 -132
l34 -68 109 4 c79 2 112 7 123 18 12 12 16 46 17 155 3 170 -2 182 -100 253
-88 64 -112 97 -151 202 -63 172 -89 199 -194 201 -34 1 -110 4 -171 8 l-110
6 -6 60 c-11 100 12 95 -434 95 -375 0 -382 0 -401 -21z m657 -149 c26 -14 24
-45 -3 -64 -19 -13 -60 -16 -248 -16 -188 0 -229 3 -248 16 -26 18 -29 49 -4
63 23 14 477 14 503 1z m530 -93 c20 -16 69 -153 69 -195 0 -33 -30 -42 -147
-42 -143 0 -145 1 -159 121 -14 125 -10 129 124 129 60 -1 103 -5 113 -13z
m-517 -119 c8 -13 8 -23 0 -35 -10 -16 -33 -18 -196 -21 -157 -2 -187 0 -198
13 -10 12 -10 21 -2 41 l12 24 186 -2 c165 -3 188 -5 198 -20z m-13 -197 c23
-19 24 -19 5 -40 -17 -19 -30 -21 -121 -21 -88 0 -106 3 -126 20 l-24 20 24
20 c20 17 38 20 121 20 81 0 102 -3 121 -19z"/>
<path d="M1702 823 c-13 -3 -38 -20 -57 -38 -93 -93 -28 -275 99 -275 33 0 45
7 77 40 79 82 59 226 -37 266 -34 14 -41 15 -82 7z m66 -113 c28 -26 28 -67 0
-97 -28 -30 -42 -29 -67 3 -28 36 -26 68 5 93 33 26 35 26 62 1z"/>
<path d="M877 779 c-39 -42 -39 -42 -35 -113 2 -51 9 -78 23 -98 61 -81 164
-77 212 9 46 83 38 159 -22 212 -30 26 -44 31 -87 31 -47 0 -54 -3 -91 -41z
m128 -74 c36 -35 29 -81 -15 -105 -60 -32 -102 84 -43 119 26 15 31 14 58 -14z"/>
</g>
</svg>
