<?xml version="1.0" standalone="no"?>
<!DOCTYPE svg PUBLIC "-//W3C//DTD SVG 20010904//EN"
 "http://www.w3.org/TR/2001/REC-SVG-20010904/DTD/svg10.dtd">
<svg version="1.0" xmlns="http://www.w3.org/2000/svg"
 width="250.000000pt" height="220.000000pt" viewBox="0 0 250.000000 220.000000"
 preserveAspectRatio="xMidYMid meet">

<g transform="translate(0.000000,220.000000) scale(0.100000,-0.100000)"
fill="#000000" stroke="none">
<path d="M944 1753 c-212 -3 -284 -6 -292 -16 -10 -11 -29 -107 -52 -262 -5
-27 -13 -81 -19 -120 -24 -146 -23 -145 -137 -145 -69 0 -86 -3 -91 -16 -12
-31 113 -366 146 -391 9 -8 29 -11 48 -8 74 13 211 -15 393 -80 52 -19 97 -28
145 -28 68 -1 94 5 185 45 138 62 210 78 349 78 97 0 134 -5 206 -25 l88 -26
23 22 c13 13 24 26 24 31 0 4 35 63 78 130 122 191 154 247 147 258 -4 6 -55
10 -124 10 l-118 0 -44 -47 c-25 -27 -57 -64 -72 -85 -16 -20 -36 -39 -45 -43
-25 -11 -861 -15 -887 -5 -16 6 -31 30 -49 78 -15 38 -35 77 -44 85 -9 9 -42
18 -72 22 -30 3 -56 8 -59 10 -7 8 38 341 50 369 8 18 25 29 51 37 54 14 423
8 439 -8 6 -6 14 -26 18 -45 7 -32 8 -33 56 -33 l50 0 3 89 c3 108 -8 127 -72
124 -23 -2 -168 -4 -322 -5z"/>
<path d="M1179 1453 c-38 -3 -48 -8 -53 -26 -9 -32 -7 -110 3 -125 10 -17 328
-19 344 -3 6 6 12 34 15 63 3 45 1 56 -18 73 -19 17 -37 20 -134 21 -61 1
-132 0 -157 -3z"/>
<path d="M914 1436 c-3 -7 -4 -42 -2 -77 l3 -64 77 -3 c69 -3 78 -1 88 18 12
23 4 107 -12 128 -15 17 -147 17 -154 -2z"/>
<path d="M1527 1444 c-12 -13 -8 -131 6 -141 15 -13 144 -25 175 -17 22 6 23
11 20 83 l-3 76 -95 3 c-53 1 -99 0 -103 -4z"/>
<path d="M928 1243 c-25 -6 -26 -118 -2 -127 9 -3 90 -6 180 -6 l164 0 0 58
c0 32 -5 63 -12 70 -12 12 -289 16 -330 5z"/>
<path d="M1317 1234 c-11 -11 -8 -112 3 -119 19 -12 383 -5 397 7 9 7 13 28
11 62 l-3 51 -201 3 c-110 1 -203 -1 -207 -4z"/>
<path d="M1474 711 c-67 -11 -110 -25 -219 -74 -124 -55 -191 -56 -327 -4
-143 54 -202 68 -313 74 -95 5 -104 4 -185 -27 -138 -54 -185 -91 -178 -143 5
-33 33 -32 86 1 71 45 141 62 256 62 118 -1 198 -16 281 -55 89 -40 143 -55
210 -55 73 0 123 15 240 70 199 93 393 90 636 -11 97 -40 129 -49 155 -44 50
9 177 64 192 83 18 23 15 56 -8 77 -19 17 -22 17 -88 -13 -88 -41 -161 -43
-230 -8 -107 54 -169 68 -317 72 -77 1 -163 -1 -191 -5z"/>
</g>
</svg>
