<?xml version="1.0" standalone="no"?>
<!DOCTYPE svg PUBLIC "-//W3C//DTD SVG 20010904//EN"
 "http://www.w3.org/TR/2001/REC-SVG-20010904/DTD/svg10.dtd">
<svg version="1.0" xmlns="http://www.w3.org/2000/svg"
 width="48.000000pt" height="48.000000pt" viewBox="0 0 48.000000 48.000000"
 preserveAspectRatio="xMidYMid meet">

<g transform="translate(0.000000,48.000000) scale(0.100000,-0.100000)"
fill="#000000" stroke="none">
<path d="M77 402 c-14 -16 -17 -43 -17 -164 0 -188 -10 -178 178 -178 190 0
182 -8 182 183 0 187 10 177 -182 177 -128 0 -147 -2 -161 -18z m273 -71 c0
-10 -9 -21 -20 -24 -11 -3 -20 -12 -20 -21 0 -9 8 -16 20 -16 13 0 20 -7 20
-20 0 -13 -7 -20 -20 -20 -18 0 -20 -7 -20 -65 0 -63 -1 -65 -25 -65 -24 0
-25 2 -25 65 0 51 -3 65 -15 65 -8 0 -15 9 -15 20 0 11 7 20 15 20 10 0 15 10
15 28 0 37 17 52 57 52 26 0 33 -4 33 -19z"/>
</g>
</svg>
