<?xml version="1.0" standalone="no"?>
<!DOCTYPE svg PUBLIC "-//W3C//DTD SVG 20010904//EN"
 "http://www.w3.org/TR/2001/REC-SVG-20010904/DTD/svg10.dtd">
<svg version="1.0" xmlns="http://www.w3.org/2000/svg"
 width="96.000000pt" height="96.000000pt" viewBox="0 0 96.000000 96.000000"
 preserveAspectRatio="xMidYMid meet">

<g transform="translate(0.000000,96.000000) scale(0.100000,-0.100000)"
fill="#000000" stroke="none">
<path d="M216 802 c-52 -39 -93 -103 -107 -170 -6 -33 -10 -110 -7 -187 3
-118 6 -136 31 -187 29 -60 78 -106 144 -136 31 -14 68 -17 203 -17 148 0 170
2 210 22 50 24 119 79 85 68 -129 -42 -288 -48 -386 -15 -54 19 -67 20 -115 9
-30 -7 -57 -10 -59 -7 -3 3 2 22 12 42 17 37 17 37 -14 94 -37 69 -53 139 -53
236 0 89 20 159 64 225 19 28 34 51 32 51 -1 0 -19 -13 -40 -28z"/>
<path d="M270 586 c0 -11 14 -16 50 -18 l49 -3 -54 -65 c-30 -35 -55 -68 -55
-72 0 -4 34 -8 75 -8 59 0 75 3 75 14 0 11 -14 16 -50 18 l-49 3 54 65 c30 35
55 68 55 72 0 4 -34 8 -75 8 -59 0 -75 -3 -75 -14z"/>
<path d="M602 513 c2 -58 7 -88 16 -91 9 -3 12 19 12 87 0 75 -3 91 -15 91
-13 0 -15 -14 -13 -87z"/>
<path d="M461 558 c-75 -39 -21 -164 56 -129 14 7 24 7 28 1 16 -26 25 -4 25
60 0 66 -1 70 -22 69 -13 0 -32 2 -43 5 -11 4 -31 1 -44 -6z m67 -30 c7 -7 12
-21 12 -33 0 -12 -5 -26 -12 -33 -28 -28 -78 -7 -78 33 0 12 5 26 12 33 7 7
21 12 33 12 12 0 26 -5 33 -12z"/>
<path d="M701 558 c-51 -27 -47 -108 5 -129 56 -21 113 28 98 85 -11 45 -61
66 -103 44z m67 -30 c28 -28 7 -78 -33 -78 -27 0 -45 18 -45 45 0 27 18 45 45
45 12 0 26 -5 33 -12z"/>
</g>
</svg>
